RobotoSerifTextWide-Regular05h.ufo
<glyph name="zero" format="2">
  <advance width="664"/>
  <unicode hex="0030"/>
  <outline>
    <contour>
      <point x="332" y="-10" type="curve" smooth="yes"/>
      <point x="495" y="-10"/>
      <point x="617" y="116"/>
      <point x="617" y="304" type="curve" smooth="yes"/>
      <point x="617" y="492"/>
      <point x="495" y="619"/>
      <point x="332" y="619" type="curve" smooth="yes"/>
      <point x="169" y="619"/>
      <point x="47" y="492"/>
      <point x="47" y="304" type="curve" smooth="yes"/>
      <point x="47" y="116"/>
      <point x="169" y="-10"/>
    </contour>
    <contour>
      <point x="332" y="50" type="curve" smooth="yes"/>
      <point x="218" y="50"/>
      <point x="150" y="147"/>
      <point x="150" y="304" type="curve" smooth="yes"/>
      <point x="150" y="461"/>
      <point x="217" y="559"/>
      <point x="332" y="559" type="curve" smooth="yes"/>
      <point x="447" y="559"/>
      <point x="514" y="461"/>
      <point x="514" y="304" type="curve" smooth="yes"/>
      <point x="514" y="146"/>
      <point x="446" y="50"/>
    </contour>
  </outline>
</glyph>
<glyph name="asciitilde" format="2">
  <advance width="664"/>
  <unicode hex="007E"/>
  <outline>
    <contour>
      <point x="419" y="269" type="curve" smooth="yes"/>
      <point x="502" y="269"/>
      <point x="541" y="320"/>
      <point x="566" y="398" type="curve"/>
      <point x="507" y="417" type="line"/>
      <point x="491" y="382"/>
      <point x="474" y="353"/>
      <point x="432" y="353" type="curve" smooth="yes"/>
      <point x="369" y="353"/>
      <point x="324" y="409"/>
      <point x="240" y="409" type="curve" smooth="yes"/>
      <point x="160" y="409"/>
      <point x="119" y="360"/>
      <point x="98" y="280" type="curve"/>
      <point x="159" y="262" type="line"/>
      <point x="172" y="299"/>
      <point x="189" y="326"/>
      <point x="230" y="326" type="curve" smooth="yes"/>
      <point x="291" y="326"/>
      <point x="343" y="269"/>
    </contour>
  </outline>
</glyph>
<glyph name="currency" format="2">
  <advance width="664"/>
  <unicode hex="00A4"/>
  <outline>
    <contour>
      <point x="480" y="373" type="curve" smooth="yes"/>
      <point x="480.0" y="293.0"/>
      <point x="422" y="242.0"/>
      <point x="332" y="242" type="curve" smooth="yes"/>
      <point x="242" y="242.0"/>
      <point x="184.0" y="294.0"/>
      <point x="184" y="373" type="curve" smooth="yes"/>
      <point x="184.0" y="453.0"/>
      <point x="242" y="505.0"/>
      <point x="332" y="505" type="curve" smooth="yes"/>
      <point x="422" y="505.0"/>
      <point x="480.0" y="453.0"/>
    </contour>
    <contour>
      <point x="100" y="373" type="curve" smooth="yes"/>
      <point x="100" y="258"/>
      <point x="209.0" y="170.0"/>
      <point x="332.0" y="170.0" type="curve" smooth="yes"/>
      <point x="455.0" y="170.0"/>
      <point x="564" y="258"/>
      <point x="564" y="373" type="curve" smooth="yes"/>
      <point x="564.0" y="488.0"/>
      <point x="455.0" y="577.0"/>
      <point x="332.0" y="577.0" type="curve" smooth="yes"/>
      <point x="209.0" y="577.0"/>
      <point x="100.0" y="488.0"/>
    </contour>
    <contour>
      <point x="41" y="582" type="line"/>
      <point x="162" y="479" type="line"/>
      <point x="225" y="525" type="line"/>
      <point x="96" y="635" type="line"/>
    </contour>
    <contour>
      <point x="623" y="582" type="line"/>
      <point x="568" y="635" type="line"/>
      <point x="439" y="525" type="line"/>
      <point x="502" y="479" type="line"/>
    </contour>
    <contour>
      <point x="41" y="164" type="line"/>
      <point x="96" y="111" type="line"/>
      <point x="225" y="221" type="line"/>
      <point x="162" y="267" type="line"/>
    </contour>
    <contour>
      <point x="623" y="164" type="line"/>
      <point x="502" y="267" type="line"/>
      <point x="439" y="221" type="line"/>
      <point x="568" y="111" type="line"/>
    </contour>
  </outline>
</glyph>
<glyph name="multiply" format="2">
  <advance width="664"/>
  <unicode hex="00D7"/>
  <outline>
    <contour>
      <point x="179" y="535" type="line"/>
      <point x="129" y="486" type="line"/>
      <point x="487" y="146" type="line"/>
      <point x="537" y="195" type="line"/>
    </contour>
    <contour>
      <point x="486" y="535" type="line"/>
      <point x="127" y="195" type="line"/>
      <point x="178" y="146" type="line"/>
      <point x="535" y="486" type="line"/>
    </contour>
  </outline>
</glyph>
<glyph name="Hbar" format="2">
  <advance width="955"/>
  <unicode hex="0126"/>
  <outline>
    <contour>
      <point x="61" y="549" type="line"/>
      <point x="61" y="495" type="line"/>
      <point x="894" y="495" type="line"/>
      <point x="894" y="549" type="line"/>
    </contour>
    <component base="H"/>
  </outline>
</glyph>
<glyph name="breve" format="2">
  <advance width="588"/>
  <unicode hex="02D8"/>
  <anchor x="295" y="517" name="_top"/>
  <outline>
    <contour>
      <point x="295" y="578" type="curve" smooth="yes"/>
      <point x="207.66875" y="578.0"/>
      <point x="143.99966332602037" y="628.0061162439634"/>
      <point x="138" y="737" type="curve"/>
      <point x="203" y="737" type="line"/>
      <point x="211.99519023555195" y="670.0358060242243"/>
      <point x="244" y="650.0"/>
      <point x="298" y="650" type="curve" smooth="yes"/>
      <point x="350" y="650.0"/>
      <point x="380.00501117457185" y="670.0373054107015"/>
      <point x="389" y="737" type="curve"/>
      <point x="450" y="737" type="line"/>
      <point x="444.00034089495347" y="628.006192924988"/>
      <point x="381.3291139240506" y="578.0"/>
    </contour>
  </outline>
</glyph>
<glyph name="tilde" format="2">
  <advance width="588"/>
  <unicode hex="02DC"/>
  <anchor x="291" y="516" name="_top"/>
  <outline>
    <contour>
      <point x="363" y="593" type="curve" smooth="yes"/>
      <point x="425" y="593"/>
      <point x="460" y="636"/>
      <point x="480" y="719" type="curve"/>
      <point x="429" y="736" type="line"/>
      <point x="416" y="692"/>
      <point x="403" y="664"/>
      <point x="373" y="664" type="curve" smooth="yes"/>
      <point x="330" y="664"/>
      <point x="289" y="733"/>
      <point x="223" y="733" type="curve" smooth="yes"/>
      <point x="158" y="733"/>
      <point x="124" y="690"/>
      <point x="108" y="606" type="curve"/>
      <point x="159" y="589" type="line"/>
      <point x="168" y="635"/>
      <point x="183" y="662"/>
      <point x="213" y="662" type="curve" smooth="yes"/>
      <point x="252" y="662"/>
      <point x="289" y="593"/>
    </contour>
  </outline>
</glyph>
<glyph name="lira" format="2">
  <advance width="664"/>
  <unicode hex="20A4"/>
  <outline>
    <contour>
      <point x="41" y="441" type="line"/>
      <point x="41" y="388" type="line"/>
      <point x="475" y="388" type="line"/>
      <point x="475" y="441" type="line"/>
    </contour>
    <contour>
      <point x="41" y="286" type="line"/>
      <point x="41" y="233" type="line"/>
      <point x="475" y="233" type="line"/>
      <point x="475" y="286" type="line"/>
    </contour>
    <contour>
      <point x="30" y="-13" type="line"/>
      <point x="194.0" y="26"/>
      <point x="286.0" y="113.0"/>
      <point x="286" y="227" type="curve" smooth="yes"/>
      <point x="286.0" y="327.0"/>
      <point x="201.0" y="428.0"/>
      <point x="201" y="527" type="curve" smooth="yes"/>
      <point x="201.0" y="616.0"/>
      <point x="272.16149068322983" y="658.0"/>
      <point x="372" y="658" type="curve" smooth="yes"/>
      <point x="454.968152866242" y="658.0"/>
      <point x="504.76220079998853" y="633.0502538666764"/>
      <point x="539" y="604" type="curve"/>
      <point x="538" y="624"/>
      <point x="525" y="648"/>
      <point x="497" y="650" type="curve"/>
      <point x="497" y="543" type="line"/>
      <point x="593" y="543" type="line"/>
      <point x="593" y="665" type="line"/>
      <point x="559.9873475024361" y="688.7278439826241"/>
      <point x="487.1904761904762" y="720.0"/>
      <point x="373" y="720" type="curve" smooth="yes"/>
      <point x="212.08396946564883" y="720.0"/>
      <point x="101.0" y="648.0"/>
      <point x="101" y="528" type="curve" smooth="yes"/>
      <point x="101.0" y="418.0"/>
      <point x="198.0" y="331.0"/>
      <point x="198" y="223" type="curve" smooth="yes"/>
      <point x="198.0" y="152.0"/>
      <point x="150.0" y="92.0"/>
      <point x="30" y="60" type="curve"/>
    </contour>
    <contour>
      <point x="458" y="-10" type="curve" smooth="yes"/>
      <point x="561" y="-10.0"/>
      <point x="611.9531131829809" y="60.826065033639054"/>
      <point x="643" y="176" type="curve"/>
      <point x="585" y="195" type="line"/>
      <point x="553.8753777784834" y="110.66231398040676"/>
      <point x="522" y="84.0"/>
      <point x="460" y="84" type="curve" smooth="yes"/>
      <point x="393" y="84"/>
      <point x="312.6693061775865" y="111.00606044565825"/>
      <point x="227" y="175" type="curve"/>
      <point x="211" y="166"/>
      <point x="196" y="140"/>
      <point x="190" y="122" type="curve"/>
      <point x="301.88005124920073" y="32.701243498344354"/>
      <point x="366" y="-10"/>
    </contour>
  </outline>
</glyph>
<glyph name="naira" format="2">
  <advance width="664"/>
  <unicode hex="20A6"/>
  <outline>
    <contour>
      <point x="145" y="696" type="line"/>
      <point x="457" y="0" type="line"/>
      <point x="561" y="0" type="line"/>
      <point x="561" y="620" type="line" smooth="yes"/>
      <point x="561" y="650.0"/>
      <point x="588.1551724137931" y="661"/>
      <point x="624" y="661" type="curve" smooth="yes"/>
      <point x="637" y="661" type="line"/>
      <point x="637" y="710" type="line"/>
      <point x="410" y="710" type="line"/>
      <point x="410" y="661" type="line"/>
      <point x="427" y="661" type="line"/>
      <point x="456.25" y="661.0"/>
      <point x="492" y="653.0"/>
      <point x="492" y="646" type="curve" smooth="yes"/>
      <point x="492" y="36" type="line"/>
      <point x="528" y="20" type="line"/>
      <point x="227" y="710" type="line"/>
      <point x="27" y="710" type="line"/>
      <point x="27" y="661" type="line"/>
      <point x="40" y="661" type="line" smooth="yes"/>
      <point x="76.13235294117646" y="661"/>
      <point x="103" y="654.0"/>
      <point x="103" y="625" type="curve" smooth="yes"/>
      <point x="103" y="90" type="line" smooth="yes"/>
      <point x="103" y="61.0"/>
      <point x="76" y="49"/>
      <point x="40" y="49" type="curve" smooth="yes"/>
      <point x="27" y="49" type="line"/>
      <point x="27" y="0" type="line"/>
      <point x="254" y="0" type="line"/>
      <point x="254" y="49" type="line"/>
      <point x="237" y="49" type="line" smooth="yes"/>
      <point x="207.75" y="49"/>
      <point x="172" y="57.0"/>
      <point x="172" y="64" type="curve" smooth="yes"/>
      <point x="172" y="695" type="line"/>
    </contour>
    <contour>
      <point x="142" y="461" type="line"/>
      <point x="16" y="461" type="line"/>
      <point x="16" y="407" type="line"/>
      <point x="139" y="407" type="line"/>
    </contour>
    <contour>
      <point x="310" y="408" type="line"/>
      <point x="522" y="408" type="line"/>
      <point x="540" y="407" type="line"/>
      <point x="648" y="407" type="line"/>
      <point x="648" y="461" type="line"/>
      <point x="307" y="461" type="line"/>
    </contour>
    <contour>
      <point x="535" y="247" type="line"/>
      <point x="648" y="247" type="line"/>
      <point x="648" y="301" type="line"/>
      <point x="537" y="301" type="line"/>
    </contour>
    <contour>
      <point x="366" y="300" type="line"/>
      <point x="152" y="300" type="line"/>
      <point x="134" y="301" type="line"/>
      <point x="16" y="301" type="line"/>
      <point x="16" y="247" type="line"/>
      <point x="395" y="247" type="line"/>
    </contour>
  </outline>
</glyph>
<glyph name="peseta" format="2">
  <advance width="664"/>
  <unicode hex="20A7"/>
  <outline>
    <contour>
      <point x="5" y="0" type="line"/>
      <point x="221" y="0" type="line"/>
      <point x="221" y="49" type="line"/>
      <point x="206" y="49" type="line" smooth="yes"/>
      <point x="184.84745762711864" y="49"/>
      <point x="154" y="52.0"/>
      <point x="154" y="59" type="curve" smooth="yes"/>
      <point x="154" y="255" type="line"/>
      <point x="178" y="255" type="line" smooth="yes"/>
      <point x="332.0" y="255.0"/>
      <point x="408" y="351"/>
      <point x="408" y="486" type="curve" smooth="yes"/>
      <point x="408" y="622"/>
      <point x="337.0" y="710.0"/>
      <point x="184" y="710" type="curve" smooth="yes"/>
      <point x="5" y="710" type="line"/>
      <point x="5" y="661" type="line"/>
      <point x="12" y="661" type="line" smooth="yes"/>
      <point x="40" y="661"/>
      <point x="60" y="654"/>
      <point x="60" y="626" type="curve" smooth="yes"/>
      <point x="60" y="84" type="line" smooth="yes"/>
      <point x="60" y="56"/>
      <point x="40" y="49"/>
      <point x="12" y="49" type="curve" smooth="yes"/>
      <point x="5" y="49" type="line"/>
    </contour>
    <contour>
      <point x="186" y="651" type="line" smooth="yes"/>
      <point x="280.0" y="651.0"/>
      <point x="311" y="589"/>
      <point x="311" y="485" type="curve" smooth="yes"/>
      <point x="311" y="381"/>
      <point x="279.0" y="312.0"/>
      <point x="180" y="312" type="curve" smooth="yes"/>
      <point x="154" y="312" type="line"/>
      <point x="154" y="651" type="line"/>
    </contour>
    <contour>
      <point x="379" y="449" type="line"/>
      <point x="659" y="449" type="line"/>
      <point x="659" y="508" type="line"/>
      <point x="524" y="508" type="line"/>
      <point x="484" y="574" type="line"/>
      <point x="484" y="514"/>
      <point x="459" y="503"/>
      <point x="414" y="503" type="curve" smooth="yes"/>
      <point x="379" y="503" type="line"/>
    </contour>
    <contour>
      <point x="557" y="105" type="curve" smooth="yes"/>
      <point x="557" y="648" type="line"/>
      <point x="484" y="648" type="line"/>
      <point x="484" y="500" type="line"/>
      <point x="466" y="492" type="line"/>
      <point x="466" y="105" type="line" smooth="yes"/>
      <point x="466.0" y="19.0"/>
      <point x="519.0" y="-10.0"/>
      <point x="602" y="-10" type="curve" smooth="yes"/>
      <point x="632" y="-10"/>
      <point x="651" y="-7"/>
      <point x="661" y="-4" type="curve"/>
      <point x="661" y="57" type="line"/>
      <point x="650" y="53"/>
      <point x="634" y="51"/>
      <point x="618" y="51" type="curve" smooth="yes"/>
      <point x="578.0" y="51.0"/>
      <point x="557" y="66.82758620689656"/>
    </contour>
  </outline>
</glyph>
<glyph name="won" format="2">
  <advance width="664"/>
  <unicode hex="20A9"/>
  <outline>
    <contour>
      <point x="7" y="710" type="line"/>
      <point x="7" y="661" type="line"/>
      <point x="13" y="661" type="line" smooth="yes"/>
      <point x="38.407407407407405" y="661"/>
      <point x="58.30481494305622" y="657.9927237227123"/>
      <point x="62" y="625" type="curve" smooth="yes"/>
      <point x="132" y="0" type="line"/>
      <point x="246" y="0" type="line"/>
      <point x="345" y="683" type="line"/>
      <point x="331" y="689" type="line"/>
      <point x="432" y="0" type="line"/>
      <point x="544" y="0" type="line"/>
      <point x="602" y="618" type="line" smooth="yes"/>
      <point x="605.1871443999577" y="651.9595730892039"/>
      <point x="626.5" y="661"/>
      <point x="651" y="661" type="curve" smooth="yes"/>
      <point x="656" y="661" type="line"/>
      <point x="656" y="710" type="line"/>
      <point x="487" y="710" type="line"/>
      <point x="487" y="661" type="line"/>
      <point x="494" y="661" type="line" smooth="yes"/>
      <point x="519.0" y="661"/>
      <point x="544.0" y="654.0"/>
      <point x="544" y="644" type="curve"/>
      <point x="489" y="20" type="line"/>
      <point x="494" y="25" type="line"/>
      <point x="391" y="710" type="line"/>
      <point x="290" y="710" type="line"/>
      <point x="191" y="12" type="line"/>
      <point x="201" y="15" type="line"/>
      <point x="132" y="651" type="line"/>
      <point x="132.0" y="658.0"/>
      <point x="158.48275862068965" y="661"/>
      <point x="180" y="661" type="curve" smooth="yes"/>
      <point x="191" y="661" type="line"/>
      <point x="191" y="710" type="line"/>
    </contour>
    <contour>
      <point x="2" y="458" type="line"/>
      <point x="2" y="404" type="line"/>
      <point x="131" y="404" type="line"/>
      <point x="139" y="406" type="line"/>
      <point x="274" y="406" type="line"/>
      <point x="285" y="458" type="line"/>
    </contour>
    <contour>
      <point x="412" y="406" type="line"/>
      <point x="545" y="406" type="line"/>
      <point x="555" y="404" type="line"/>
      <point x="661" y="404" type="line"/>
      <point x="661" y="458" type="line"/>
      <point x="402" y="458" type="line"/>
    </contour>
    <contour>
      <point x="243" y="238" type="line"/>
      <point x="433" y="238" type="line"/>
      <point x="424" y="290" type="line"/>
      <point x="255" y="290" type="line"/>
    </contour>
    <contour>
      <point x="129" y="291" type="line"/>
      <point x="2" y="291" type="line"/>
      <point x="2" y="237" type="line"/>
      <point x="141" y="237" type="line"/>
    </contour>
    <contour>
      <point x="537" y="237" type="line"/>
      <point x="661" y="237" type="line"/>
      <point x="661" y="291" type="line"/>
      <point x="551" y="291" type="line"/>
    </contour>
  </outline>
</glyph>
<glyph name="dong" format="2">
  <advance width="664"/>
  <unicode hex="20AB"/>
  <outline>
    <contour>
      <point x="150" y="250" type="curve" smooth="yes"/>
      <point x="150" y="376"/>
      <point x="204" y="458"/>
      <point x="304" y="458" type="curve" smooth="yes"/>
      <point x="386" y="458"/>
      <point x="449" y="413"/>
      <point x="491" y="313" type="curve"/>
      <point x="533" y="334" type="line"/>
      <point x="480.0703183233896" y="457.83548165848475"/>
      <point x="412.05172413793105" y="518.0"/>
      <point x="303" y="518" type="curve" smooth="yes"/>
      <point x="150.80158730158732" y="518.0"/>
      <point x="49.0" y="410.0"/>
      <point x="49" y="250" type="curve" smooth="yes"/>
      <point x="49.0" y="94.0"/>
      <point x="144" y="-11.0"/>
      <point x="288" y="-11" type="curve" smooth="yes"/>
      <point x="401" y="-11.0"/>
      <point x="469.47448094345845" y="52.91392728314736"/>
      <point x="530" y="178" type="curve"/>
      <point x="493" y="200" type="line"/>
      <point x="445.74679035237983" y="101.47203094751536"/>
      <point x="387.0" y="48.0"/>
      <point x="299" y="48" type="curve" smooth="yes"/>
      <point x="202.0" y="48.0"/>
      <point x="150.0" y="126.38805970149254"/>
    </contour>
    <contour>
      <point x="469" y="735" type="line"/>
      <point x="469" y="114" type="line"/>
      <point x="477" y="112" type="line"/>
      <point x="477" y="0" type="line"/>
      <point x="651" y="0" type="line"/>
      <point x="651" y="47" type="line"/>
      <point x="648" y="47" type="line"/>
      <point x="598.695652173913" y="47.0"/>
      <point x="564" y="54.0"/>
      <point x="564" y="82" type="curve" smooth="yes"/>
      <point x="564" y="735" type="line"/>
    </contour>
    <contour>
      <point x="108" y="-126" type="line"/>
      <point x="108" y="-188" type="line"/>
      <point x="614" y="-188" type="line"/>
      <point x="614" y="-126" type="line"/>
    </contour>
    <contour>
      <point x="272" y="625" type="line"/>
      <point x="272" y="571" type="line"/>
      <point x="667" y="571" type="line"/>
      <point x="667" y="625" type="line"/>
    </contour>
  </outline>
</glyph>
<glyph name="Euro" format="2">
  <advance width="664"/>
  <unicode hex="20AC"/>
  <outline>
    <contour>
      <point x="27" y="452" type="line"/>
      <point x="27" y="394" type="line"/>
      <point x="474" y="394" type="line"/>
      <point x="474" y="452" type="line"/>
    </contour>
    <contour>
      <point x="27" y="297" type="line"/>
      <point x="27" y="239" type="line"/>
      <point x="418" y="239" type="line"/>
      <point x="418" y="297" type="line"/>
    </contour>
    <contour>
      <point x="403" y="-10" type="curve" smooth="yes"/>
      <point x="531" y="-10"/>
      <point x="608" y="61"/>
      <point x="645" y="162" type="curve"/>
      <point x="581" y="192" type="line"/>
      <point x="554" y="119"/>
      <point x="501" y="54"/>
      <point x="409" y="54" type="curve" smooth="yes"/>
      <point x="295" y="54"/>
      <point x="215" y="138"/>
      <point x="215" y="355" type="curve" smooth="yes"/>
      <point x="215.0" y="577.0"/>
      <point x="303.94117647058823" y="656.0"/>
      <point x="431" y="656" type="curve" smooth="yes"/>
      <point x="501" y="656"/>
      <point x="550" y="629"/>
      <point x="575" y="601" type="curve"/>
      <point x="592" y="617"/>
      <point x="562" y="646"/>
      <point x="525" y="655" type="curve"/>
      <point x="525" y="549" type="line"/>
      <point x="625" y="549" type="line"/>
      <point x="625" y="673" type="line"/>
      <point x="597" y="691"/>
      <point x="532" y="720"/>
      <point x="431" y="720" type="curve" smooth="yes"/>
      <point x="251.81733746130033" y="720.0"/>
      <point x="113.0" y="609.0"/>
      <point x="113" y="355" type="curve" smooth="yes"/>
      <point x="113" y="102"/>
      <point x="237" y="-10"/>
    </contour>
  </outline>
</glyph>
<glyph name="guarani" format="2">
  <advance width="664"/>
  <unicode hex="20B2"/>
  <outline>
    <contour>
      <point x="440" y="358" type="line"/>
      <point x="440" y="310" type="line"/>
      <point x="447" y="310" type="line" smooth="yes"/>
      <point x="475.72340425531917" y="310"/>
      <point x="497.0" y="302.0"/>
      <point x="497" y="274" type="curve"/>
      <point x="591" y="274" type="line"/>
      <point x="591.0" y="302.0"/>
      <point x="608.0" y="310"/>
      <point x="646" y="310" type="curve" smooth="yes"/>
      <point x="650" y="310" type="line"/>
      <point x="650" y="358" type="line"/>
    </contour>
    <contour>
      <point x="307" y="790" type="line"/>
      <point x="307" y="669" type="line"/>
      <point x="307" y="658" type="line"/>
      <point x="307" y="51" type="line"/>
      <point x="307" y="39" type="line"/>
      <point x="307" y="-120" type="line"/>
      <point x="373" y="-120" type="line"/>
      <point x="373" y="40" type="line"/>
      <point x="373" y="51" type="line"/>
      <point x="373" y="655" type="line"/>
      <point x="373" y="673" type="line"/>
      <point x="373" y="790" type="line"/>
    </contour>
    <contour>
      <point x="367" y="9" type="curve" smooth="yes"/>
      <point x="463" y="9"/>
      <point x="553.7222157623454" y="51.79823847417118"/>
      <point x="591" y="93" type="curve"/>
      <point x="591" y="320" type="line"/>
      <point x="497" y="329" type="line"/>
      <point x="497" y="105" type="line"/>
      <point x="478.8741541940106" y="91.64411361663942"/>
      <point x="438" y="69"/>
      <point x="368" y="69" type="curve" smooth="yes"/>
      <point x="216" y="69.0"/>
      <point x="135.0" y="177.0"/>
      <point x="135" y="355" type="curve" smooth="yes"/>
      <point x="135.0" y="528.0"/>
      <point x="206.0" y="641.0"/>
      <point x="376" y="641.0" type="curve" smooth="yes"/>
      <point x="446" y="641.0"/>
      <point x="514.2159539362063" y="618.6051128023656"/>
      <point x="549" y="555" type="curve"/>
      <point x="557.9006726031924" y="588.6247631676157"/>
      <point x="523.0723433391483" y="621.9630226434776"/>
      <point x="493" y="623" type="curve"/>
      <point x="493" y="519" type="line"/>
      <point x="596" y="519" type="line"/>
      <point x="596" y="634" type="line"/>
      <point x="551" y="671"/>
      <point x="463.8355555555556" y="701.0"/>
      <point x="369" y="701" type="curve" smooth="yes"/>
      <point x="158" y="701.0"/>
      <point x="30.0" y="558.0"/>
      <point x="30" y="355" type="curve" smooth="yes"/>
      <point x="30.0" y="148.0"/>
      <point x="159" y="9.0"/>
    </contour>
  </outline>
</glyph>
<glyph name="uni20B4" format="2">
  <advance width="664"/>
  <unicode hex="20B4"/>
  <outline>
    <contour>
      <point x="21" y="467" type="line"/>
      <point x="21" y="410" type="line"/>
      <point x="643" y="410" type="line"/>
      <point x="643" y="467" type="line"/>
    </contour>
    <contour>
      <point x="21" y="317" type="line"/>
      <point x="21" y="260" type="line"/>
      <point x="643" y="260" type="line"/>
      <point x="643" y="317" type="line"/>
    </contour>
    <contour>
      <point x="356" y="720" type="curve" smooth="yes"/>
      <point x="244" y="720"/>
      <point x="158" y="681"/>
      <point x="120" y="656" type="curve"/>
      <point x="120" y="542" type="line"/>
      <point x="219" y="542" type="line"/>
      <point x="219" y="643" type="line"/>
      <point x="190" y="642"/>
      <point x="161" y="614"/>
      <point x="168" y="590" type="curve"/>
      <point x="202" y="630"/>
      <point x="265" y="659"/>
      <point x="348" y="659" type="curve" smooth="yes"/>
      <point x="453" y="659"/>
      <point x="490" y="622"/>
      <point x="490" y="569" type="curve" smooth="yes"/>
      <point x="490" y="520"/>
      <point x="459" y="474"/>
      <point x="400" y="439" type="curve"/>
      <point x="516" y="432" type="line"/>
      <point x="551" y="462"/>
      <point x="580" y="505"/>
      <point x="580" y="565" type="curve" smooth="yes"/>
      <point x="580" y="663"/>
      <point x="499" y="720"/>
    </contour>
    <contour>
      <point x="340" y="-10" type="curve" smooth="yes"/>
      <point x="468" y="-10.0"/>
      <point x="562" y="35"/>
      <point x="604" y="62" type="curve"/>
      <point x="604" y="192" type="line"/>
      <point x="500" y="192" type="line"/>
      <point x="500" y="62" type="line"/>
      <point x="529" y="63"/>
      <point x="560" y="114"/>
      <point x="553" y="123" type="curve"/>
      <point x="503" y="77"/>
      <point x="437.4390243902439" y="52.0"/>
      <point x="347" y="52" type="curve" smooth="yes"/>
      <point x="251.59627329192546" y="52.0"/>
      <point x="187.0" y="85.0"/>
      <point x="187" y="165" type="curve" smooth="yes"/>
      <point x="187" y="215"/>
      <point x="211" y="265"/>
      <point x="272" y="296" type="curve"/>
      <point x="150" y="291" type="line"/>
      <point x="118" y="268"/>
      <point x="92" y="217"/>
      <point x="92" y="166" type="curve" smooth="yes"/>
      <point x="92.0" y="46.0"/>
      <point x="194" y="-10"/>
    </contour>
  </outline>
</glyph>
<glyph name="ruble" format="2">
  <advance width="664"/>
  <unicode hex="20BD"/>
  <outline>
    <contour>
      <point x="65" y="385" type="line"/>
      <point x="388" y="385" type="line" smooth="yes"/>
      <point x="502.9230769230769" y="385"/>
      <point x="554.0" y="439.0"/>
      <point x="554" y="522" type="curve" smooth="yes"/>
      <point x="554.0" y="603.0"/>
      <point x="503.0909090909091" y="651"/>
      <point x="394" y="651" type="curve" smooth="yes"/>
      <point x="262" y="651" type="line"/>
      <point x="262" y="59" type="line" smooth="yes"/>
      <point x="262" y="52.0"/>
      <point x="304.032967032967" y="49"/>
      <point x="337" y="49" type="curve" smooth="yes"/>
      <point x="369" y="49" type="line"/>
      <point x="369" y="0" type="line"/>
      <point x="65" y="0" type="line"/>
      <point x="65" y="49" type="line"/>
      <point x="78" y="49" type="line" smooth="yes"/>
      <point x="127.29999999999998" y="49"/>
      <point x="163" y="56.0"/>
      <point x="163" y="85" type="curve" smooth="yes"/>
      <point x="163" y="625" type="line" smooth="yes"/>
      <point x="163" y="654.0"/>
      <point x="127.29999999999998" y="661"/>
      <point x="78" y="661" type="curve" smooth="yes"/>
      <point x="65" y="661" type="line"/>
      <point x="65" y="710" type="line"/>
      <point x="395" y="710" type="line" smooth="yes"/>
      <point x="563.7347670250896" y="710"/>
      <point x="658.0" y="637.0"/>
      <point x="658" y="523" type="curve" smooth="yes"/>
      <point x="658.0" y="410.0"/>
      <point x="557.9508771929825" y="331"/>
      <point x="389" y="331" type="curve" smooth="yes"/>
      <point x="65" y="331" type="line"/>
    </contour>
    <contour>
      <point x="480" y="177" type="line"/>
      <point x="65" y="177" type="line"/>
      <point x="65" y="231" type="line"/>
      <point x="480" y="231" type="line"/>
    </contour>
  </outline>
</glyph>
<glyph name="Omega" format="2">
  <advance width="953"/>
  <unicode hex="A7B6"/>
  <outline>
    <contour>
      <point x="476" y="720" type="curve" smooth="yes"/>
      <point x="706" y="720"/>
      <point x="845" y="592"/>
      <point x="845" y="432" type="curve" smooth="yes"/>
      <point x="845" y="278"/>
      <point x="699" y="156"/>
      <point x="578" y="49" type="curve"/>
      <point x="579" y="76" type="line"/>
      <point x="695" y="76" type="line" smooth="yes"/>
      <point x="783.3809523809524" y="76"/>
      <point x="818.3438811110216" y="82.78574197461253"/>
      <point x="823" y="119" type="curve" smooth="yes"/>
      <point x="832" y="189" type="line"/>
      <point x="894" y="189" type="line"/>
      <point x="894" y="0" type="line"/>
      <point x="544" y="0" type="line"/>
      <point x="544" y="87" type="line"/>
      <point x="640" y="190"/>
      <point x="745" y="280"/>
      <point x="745" y="431" type="curve" smooth="yes"/>
      <point x="745" y="571"/>
      <point x="652" y="658"/>
      <point x="476" y="658" type="curve" smooth="yes"/>
      <point x="300" y="658"/>
      <point x="207" y="571"/>
      <point x="207" y="431" type="curve" smooth="yes"/>
      <point x="207" y="280"/>
      <point x="312" y="190"/>
      <point x="408" y="87" type="curve"/>
      <point x="408" y="0" type="line"/>
      <point x="59" y="0" type="line"/>
      <point x="59" y="189" type="line"/>
      <point x="120" y="189" type="line"/>
      <point x="129" y="119" type="line" smooth="yes"/>
      <point x="133.65610292592012" y="82.78586613173235"/>
      <point x="169.62992125984252" y="76"/>
      <point x="258" y="76" type="curve" smooth="yes"/>
      <point x="373" y="76" type="line"/>
      <point x="374" y="49" type="line"/>
      <point x="253" y="156"/>
      <point x="107" y="278"/>
      <point x="107" y="432" type="curve" smooth="yes"/>
      <point x="107" y="592"/>
      <point x="247" y="720"/>
    </contour>
  </outline>
</glyph>
<glyph name="breve.uc" format="2">
  <advance width="588"/>
  <anchor x="295" y="694" name="_top"/>
  <outline>
    <contour>
      <point x="295" y="758" type="curve" smooth="yes"/>
      <point x="199.33333333333331" y="758.0"/>
      <point x="139.99803523683312" y="807.0203025527244"/>
      <point x="131" y="900" type="curve"/>
      <point x="198" y="900" type="line"/>
      <point x="209.97623021707733" y="849.1010215774214"/>
      <point x="240.30769230769232" y="831.0"/>
      <point x="298" y="831" type="curve" smooth="yes"/>
      <point x="352.55445544554453" y="831.0"/>
      <point x="381.0249467737012" y="849.10602378823"/>
      <point x="393" y="900" type="curve"/>
      <point x="457" y="900" type="line"/>
      <point x="448.00198814895646" y="807.0205442058831"/>
      <point x="389.66265060240966" y="758.0"/>
    </contour>
  </outline>
</glyph>
<glyph name="breve_grave.uc" format="2">
  <advance width="599"/>
  <anchor x="303" y="744" name="_top"/>
  <outline>
    <contour>
      <point x="271" y="1025" type="curve" smooth="yes"/>
      <point x="350" y="939" type="line"/>
      <point x="350" y="917" type="line"/>
      <point x="319" y="917" type="line"/>
      <point x="219" y="960" type="line" smooth="yes"/>
      <point x="178" y="978"/>
      <point x="154" y="1000"/>
      <point x="154" y="1026" type="curve" smooth="yes"/>
      <point x="154" y="1048"/>
      <point x="173" y="1068"/>
      <point x="200" y="1068" type="curve" smooth="yes"/>
      <point x="228" y="1068"/>
      <point x="246" y="1052"/>
    </contour>
    <component base="breve.uc" xOffset="6"/>
  </outline>
</glyph>
<glyph name="breve_hook.uc" format="2">
  <advance width="597"/>
  <anchor x="300" y="724" name="_top"/>
  <outline>
    <contour>
      <point x="192" y="985" type="line"/>
      <point x="196" y="1024"/>
      <point x="235" y="1057"/>
      <point x="307" y="1057" type="curve" smooth="yes"/>
      <point x="381" y="1057"/>
      <point x="423" y="1031"/>
      <point x="423" y="988" type="curve" smooth="yes"/>
      <point x="423" y="934"/>
      <point x="362" y="915"/>
      <point x="296" y="911" type="curve"/>
      <point x="327" y="934" type="line"/>
      <point x="327" y="884" type="line"/>
      <point x="272" y="884" type="line"/>
      <point x="272" y="942" type="line"/>
      <point x="325" y="945"/>
      <point x="350" y="958"/>
      <point x="350" y="985" type="curve" smooth="yes"/>
      <point x="350" y="1004"/>
      <point x="336" y="1016"/>
      <point x="307" y="1016" type="curve" smooth="yes"/>
      <point x="276" y="1016"/>
      <point x="262" y="1003"/>
      <point x="258" y="985" type="curve"/>
    </contour>
    <contour>
      <point x="300" y="759" type="curve" smooth="yes"/>
      <point x="202" y="759"/>
      <point x="141" y="799"/>
      <point x="132" y="883" type="curve"/>
      <point x="199" y="883" type="line"/>
      <point x="209" y="838"/>
      <point x="241" y="826"/>
      <point x="303" y="826" type="curve" smooth="yes"/>
      <point x="363" y="826"/>
      <point x="394" y="838"/>
      <point x="404" y="883" type="curve"/>
      <point x="466" y="883" type="line"/>
      <point x="457" y="799"/>
      <point x="397" y="759"/>
    </contour>
  </outline>
</glyph>
<glyph name="cent.alt" format="2">
  <advance width="664"/>
  <outline>
    <contour>
      <point x="389" y="495" type="line"/>
      <point x="389" y="623" type="line"/>
      <point x="323" y="623" type="line"/>
      <point x="323" y="486" type="line"/>
    </contour>
    <contour>
      <point x="323" y="13" type="line"/>
      <point x="323" y="-126" type="line"/>
      <point x="389" y="-126" type="line"/>
      <point x="389" y="22" type="line"/>
    </contour>
    <contour>
      <point x="367" y="50" type="curve" smooth="yes"/>
      <point x="237" y="50.0"/>
      <point x="151.0" y="129.0"/>
      <point x="151" y="248" type="curve" smooth="yes"/>
      <point x="151" y="375"/>
      <point x="230" y="459"/>
      <point x="365" y="459" type="curve" smooth="yes"/>
      <point x="457" y="459"/>
      <point x="522" y="419"/>
      <point x="550" y="387" type="curve"/>
      <point x="560" y="407"/>
      <point x="543" y="441"/>
      <point x="512" y="440" type="curve"/>
      <point x="512" y="329" type="line"/>
      <point x="604" y="329" type="line"/>
      <point x="604" y="450" type="line"/>
      <point x="574" y="473"/>
      <point x="489.0" y="518.0"/>
      <point x="365" y="518" type="curve" smooth="yes"/>
      <point x="176" y="518"/>
      <point x="52" y="405"/>
      <point x="52" y="248" type="curve" smooth="yes"/>
      <point x="52.0" y="97.0"/>
      <point x="184" y="-10"/>
      <point x="361" y="-10" type="curve" smooth="yes"/>
      <point x="480" y="-10"/>
      <point x="565" y="45"/>
      <point x="612" y="113" type="curve"/>
      <point x="565" y="152" type="line"/>
      <point x="529.0" y="106.0"/>
      <point x="477" y="50"/>
    </contour>
  </outline>
</glyph>
<glyph name="circumflex_grave" format="2">
  <advance width="599"/>
  <anchor x="288" y="564" name="_top"/>
  <outline>
    <contour>
      <point x="472" y="819" type="curve" smooth="yes"/>
      <point x="522" y="708" type="line"/>
      <point x="522" y="687" type="line"/>
      <point x="490" y="687" type="line"/>
      <point x="397" y="772" type="line" smooth="yes"/>
      <point x="375" y="792"/>
      <point x="363" y="815"/>
      <point x="363" y="834" type="curve" smooth="yes"/>
      <point x="363" y="857"/>
      <point x="380" y="875"/>
      <point x="408" y="875" type="curve" smooth="yes"/>
      <point x="437" y="875"/>
      <point x="455" y="856"/>
    </contour>
    <component base="circumflex" xOffset="-2"/>
  </outline>
</glyph>
<glyph name="circumflex_hook" format="2">
  <advance width="599"/>
  <anchor x="284" y="559" name="_top"/>
  <outline>
    <contour>
      <point x="358" y="797" type="line"/>
      <point x="362" y="838"/>
      <point x="403" y="872"/>
      <point x="480" y="872" type="curve" smooth="yes"/>
      <point x="557" y="872"/>
      <point x="601" y="845"/>
      <point x="601" y="800" type="curve"/>
      <point x="601" y="747"/>
      <point x="536" y="726"/>
      <point x="463" y="720" type="curve"/>
      <point x="504" y="745" type="line"/>
      <point x="504" y="694" type="line"/>
      <point x="439" y="694" type="line"/>
      <point x="439" y="754" type="line"/>
      <point x="493" y="757"/>
      <point x="518" y="773"/>
      <point x="518" y="798" type="curve"/>
      <point x="518" y="817"/>
      <point x="505" y="829"/>
      <point x="479" y="829" type="curve" smooth="yes"/>
      <point x="450" y="829"/>
      <point x="438" y="815"/>
      <point x="434" y="797" type="curve"/>
    </contour>
    <component base="circumflex"/>
  </outline>
</glyph>
<glyph name="circumflex_hook.uc" format="2">
  <advance width="599"/>
  <anchor x="291" y="694" name="_top"/>
  <outline>
    <contour>
      <point x="392" y="940" type="line"/>
      <point x="397" y="981"/>
      <point x="439" y="1015"/>
      <point x="516" y="1015" type="curve" smooth="yes"/>
      <point x="592" y="1015"/>
      <point x="639" y="987"/>
      <point x="639" y="942" type="curve" smooth="yes"/>
      <point x="639" y="889"/>
      <point x="572" y="867"/>
      <point x="499" y="863" type="curve"/>
      <point x="540" y="888" type="line"/>
      <point x="540" y="837" type="line"/>
      <point x="474" y="837" type="line"/>
      <point x="474" y="896" type="line"/>
      <point x="530" y="898"/>
      <point x="556" y="914"/>
      <point x="556" y="940" type="curve" smooth="yes"/>
      <point x="556" y="960"/>
      <point x="541" y="972"/>
      <point x="515" y="972" type="curve" smooth="yes"/>
      <point x="486" y="972"/>
      <point x="472" y="959"/>
      <point x="468" y="940" type="curve"/>
    </contour>
    <component base="circumflex.uc" xOffset="4"/>
  </outline>
</glyph>
<glyph name="circumflex_tilde" format="2">
  <advance width="588"/>
  <anchor x="292" y="550" name="_top"/>
  <outline>
    <contour>
      <point x="338.0" y="722" type="line"/>
      <point x="464.0" y="581" type="line"/>
      <point x="464.0" y="570" type="line"/>
      <point x="417.0" y="570" type="line"/>
      <point x="276.0" y="668" type="line"/>
      <point x="304.0" y="668" type="line"/>
      <point x="164.0" y="570" type="line"/>
      <point x="124.0" y="570" type="line"/>
      <point x="124.0" y="581" type="line"/>
      <point x="250.0" y="722" type="line"/>
    </contour>
    <contour>
      <point x="363.0" y="766" type="curve" smooth="yes"/>
      <point x="425.0" y="766.0"/>
      <point x="462.0" y="804"/>
      <point x="480.0" y="880" type="curve"/>
      <point x="429.0" y="897" type="line"/>
      <point x="418.0" y="859"/>
      <point x="403.0" y="835.0"/>
      <point x="373.0" y="835" type="curve" smooth="yes"/>
      <point x="330.0" y="835.0"/>
      <point x="289.0" y="894.0"/>
      <point x="223.0" y="894" type="curve" smooth="yes"/>
      <point x="158.0" y="894.0"/>
      <point x="123.0" y="855"/>
      <point x="108.0" y="779" type="curve"/>
      <point x="159.0" y="762" type="line"/>
      <point x="167.0" y="802"/>
      <point x="183.0" y="825.0"/>
      <point x="213.0" y="825" type="curve" smooth="yes"/>
      <point x="252.0" y="825.0"/>
      <point x="289.0" y="766.0"/>
    </contour>
  </outline>
</glyph>
<glyph name="currency.proportional" format="2">
  <advance width="682"/>
  <outline>
    <contour>
      <point x="489" y="373" type="curve" smooth="yes"/>
      <point x="489" y="293"/>
      <point x="431" y="242"/>
      <point x="341" y="242" type="curve" smooth="yes"/>
      <point x="251" y="242"/>
      <point x="193" y="294"/>
      <point x="193" y="373" type="curve" smooth="yes"/>
      <point x="193" y="453"/>
      <point x="251" y="505"/>
      <point x="341" y="505" type="curve" smooth="yes"/>
      <point x="431" y="505"/>
      <point x="489" y="453"/>
    </contour>
    <contour>
      <point x="109" y="373" type="curve" smooth="yes"/>
      <point x="109" y="258"/>
      <point x="218" y="170"/>
      <point x="341" y="170" type="curve" smooth="yes"/>
      <point x="464" y="170"/>
      <point x="573" y="258"/>
      <point x="573" y="373" type="curve" smooth="yes"/>
      <point x="573" y="488"/>
      <point x="464" y="577"/>
      <point x="341" y="577" type="curve" smooth="yes"/>
      <point x="218" y="577"/>
      <point x="109" y="488"/>
    </contour>
    <contour>
      <point x="50" y="582" type="line"/>
      <point x="171" y="479" type="line"/>
      <point x="234" y="525" type="line"/>
      <point x="105" y="635" type="line"/>
    </contour>
    <contour>
      <point x="632" y="582" type="line"/>
      <point x="577" y="635" type="line"/>
      <point x="448" y="525" type="line"/>
      <point x="511" y="479" type="line"/>
    </contour>
    <contour>
      <point x="50" y="164" type="line"/>
      <point x="105" y="111" type="line"/>
      <point x="234" y="221" type="line"/>
      <point x="171" y="267" type="line"/>
    </contour>
    <contour>
      <point x="632" y="164" type="line"/>
      <point x="511" y="267" type="line"/>
      <point x="448" y="221" type="line"/>
      <point x="577" y="111" type="line"/>
    </contour>
  </outline>
</glyph>
<glyph name="lira.alt" format="2">
  <advance width="664"/>
  <outline>
    <contour>
      <point x="57" y="454" type="line"/>
      <point x="57" y="400" type="line"/>
      <point x="479" y="400" type="line"/>
      <point x="479" y="454" type="line"/>
    </contour>
    <contour>
      <point x="57" y="299" type="line"/>
      <point x="57" y="246" type="line"/>
      <point x="479" y="246" type="line"/>
      <point x="479" y="299" type="line"/>
    </contour>
    <contour>
      <point x="59" y="0" type="line"/>
      <point x="612" y="0" type="line"/>
      <point x="612" y="201" type="line"/>
      <point x="550" y="201" type="line"/>
      <point x="542" y="119" type="line" smooth="yes"/>
      <point x="538.4924455297437" y="83.04756667987292"/>
      <point x="496.0753424657534" y="76.0"/>
      <point x="393" y="76" type="curve"/>
      <point x="92" y="76" type="line"/>
      <point x="146" y="63" type="line"/>
      <point x="241" y="107"/>
      <point x="299" y="185"/>
      <point x="299" y="258" type="curve" smooth="yes"/>
      <point x="299.0" y="360.0"/>
      <point x="219.0" y="422.0"/>
      <point x="219" y="527" type="curve" smooth="yes"/>
      <point x="219.0" y="608.0"/>
      <point x="280.625" y="658.0"/>
      <point x="389" y="658" type="curve" smooth="yes"/>
      <point x="466.0" y="658.0"/>
      <point x="510.18412449122604" y="631.990011463366"/>
      <point x="543" y="604" type="curve"/>
      <point x="542" y="624"/>
      <point x="529" y="648"/>
      <point x="501" y="650" type="curve"/>
      <point x="501" y="544" type="line"/>
      <point x="597" y="544" type="line"/>
      <point x="597" y="663" type="line"/>
      <point x="564.9213573460323" y="688.2740820910047"/>
      <point x="496.7945205479452" y="720.0"/>
      <point x="388" y="720" type="curve" smooth="yes"/>
      <point x="215.59073359073358" y="720.0"/>
      <point x="119.0" y="640.0"/>
      <point x="119" y="526" type="curve" smooth="yes"/>
      <point x="119.0" y="411.0"/>
      <point x="222.0" y="344.0"/>
      <point x="222" y="241" type="curve" smooth="yes"/>
      <point x="222.0" y="168.0"/>
      <point x="138" y="110.0"/>
      <point x="59" y="76" type="curve"/>
    </contour>
  </outline>
</glyph>
<glyph name="ringhalfright" format="2">
  <advance width="588"/>
  <anchor x="294" y="566" name="_top"/>
  <outline>
    <contour>
      <point x="294" y="731" type="line"/>
      <point x="331" y="731"/>
      <point x="360" y="710"/>
      <point x="360" y="670" type="curve" smooth="yes"/>
      <point x="360" y="629"/>
      <point x="331" y="609"/>
      <point x="294" y="609" type="curve"/>
      <point x="294" y="571" type="line"/>
      <point x="363" y="571"/>
      <point x="420" y="607"/>
      <point x="420" y="670" type="curve" smooth="yes"/>
      <point x="420" y="732"/>
      <point x="364" y="768"/>
      <point x="294" y="768" type="curve"/>
    </contour>
  </outline>
</glyph>
<glyph name="rupeeIndian" format="2">
  <advance width="664"/>
  <outline>
    <contour>
      <point x="85" y="521" type="line"/>
      <point x="85" y="467" type="line"/>
      <point x="629" y="467" type="line"/>
      <point x="629" y="521" type="line"/>
    </contour>
    <contour>
      <point x="133" y="282" type="line"/>
      <point x="167" y="282" type="line" smooth="yes"/>
      <point x="367" y="282"/>
      <point x="491" y="369"/>
      <point x="491" y="496" type="curve" smooth="yes"/>
      <point x="491" y="586"/>
      <point x="419" y="652"/>
      <point x="272" y="672" type="curve"/>
      <point x="234" y="689"/>
      <point x="174" y="696"/>
      <point x="230" y="656" type="curve"/>
      <point x="629" y="656" type="line"/>
      <point x="629" y="710" type="line"/>
      <point x="85" y="710" type="line"/>
      <point x="85" y="651" type="line"/>
      <point x="178" y="651" type="line" smooth="yes"/>
      <point x="314" y="651"/>
      <point x="384" y="592"/>
      <point x="384" y="497" type="curve" smooth="yes"/>
      <point x="384" y="399"/>
      <point x="319" y="336"/>
      <point x="167" y="336" type="curve" smooth="yes"/>
      <point x="85" y="336" type="line"/>
      <point x="85" y="292" type="line"/>
      <point x="430" y="0" type="line"/>
      <point x="568" y="0" type="line"/>
      <point x="568" y="49" type="line"/>
      <point x="554" y="49" type="line" smooth="yes"/>
      <point x="519" y="49"/>
      <point x="502" y="57"/>
      <point x="478" y="77" type="curve" smooth="yes"/>
      <point x="197" y="309" type="line"/>
    </contour>
  </outline>
</glyph>
<glyph name="seven.oldtab" format="2">
  <advance width="664"/>
  <outline>
    <contour>
      <point x="292" y="467" type="line" smooth="yes"/>
      <point x="186" y="467"/>
      <point x="149" y="460"/>
      <point x="144" y="417" type="curve" smooth="yes"/>
      <point x="134" y="335" type="line"/>
      <point x="77" y="335" type="line"/>
      <point x="77" y="548" type="line"/>
      <point x="622" y="548" type="line"/>
      <point x="622" y="469" type="line"/>
      <point x="475" y="313"/>
      <point x="353" y="179"/>
      <point x="327" y="-135" type="curve"/>
      <point x="222" y="-135" type="line"/>
      <point x="253" y="174"/>
      <point x="474" y="410"/>
      <point x="564" y="483" type="curve"/>
      <point x="576" y="467" type="line"/>
    </contour>
  </outline>
</glyph>
<glyph name="six.lintab" format="2">
  <advance width="664"/>
  <outline>
    <contour>
      <point x="535" y="678" type="line"/>
      <point x="311" y="645"/>
      <point x="157" y="496"/>
      <point x="157" y="294" type="curve" smooth="yes"/>
      <point x="157" y="121"/>
      <point x="236" y="52"/>
      <point x="349" y="52" type="curve" smooth="yes"/>
      <point x="451" y="52"/>
      <point x="514" y="122"/>
      <point x="514" y="230" type="curve" smooth="yes"/>
      <point x="514" y="327"/>
      <point x="464" y="392"/>
      <point x="366" y="392" type="curve" smooth="yes"/>
      <point x="262" y="392"/>
      <point x="188" y="328"/>
      <point x="140" y="245" type="curve"/>
      <point x="127" y="298" type="line"/>
      <point x="163" y="374"/>
      <point x="256" y="453"/>
      <point x="378" y="453" type="curve" smooth="yes"/>
      <point x="516" y="453"/>
      <point x="617" y="369"/>
      <point x="617" y="230" type="curve" smooth="yes"/>
      <point x="617" y="90"/>
      <point x="503" y="-10"/>
      <point x="349" y="-10" type="curve" smooth="yes"/>
      <point x="183" y="-10"/>
      <point x="56" y="92"/>
      <point x="56" y="295" type="curve" smooth="yes"/>
      <point x="56" y="513"/>
      <point x="245" y="702"/>
      <point x="524" y="740" type="curve"/>
    </contour>
  </outline>
</glyph>
<glyph name="tilde.uc" format="2">
  <advance width="588"/>
  <anchor x="292" y="694" name="_top"/>
  <outline>
    <contour>
      <point x="362" y="764" type="curve" smooth="yes"/>
      <point x="418.0731707317073" y="764.0"/>
      <point x="461.2610216821686" y="804.818658912256"/>
      <point x="483" y="873" type="curve"/>
      <point x="431" y="893" type="line"/>
      <point x="417.615939386782" y="855.936447532627"/>
      <point x="403.0" y="831.0"/>
      <point x="372" y="831" type="curve" smooth="yes"/>
      <point x="325.0" y="831.0"/>
      <point x="286.0" y="887.0"/>
      <point x="221" y="887" type="curve" smooth="yes"/>
      <point x="162.0" y="887.0"/>
      <point x="123.80890503983062" y="849.275850677253"/>
      <point x="105" y="778" type="curve"/>
      <point x="157" y="758" type="line"/>
      <point x="166.27586145709077" y="798.1953996473933"/>
      <point x="180.0" y="822.0"/>
      <point x="211" y="822" type="curve" smooth="yes"/>
      <point x="252.5503355704698" y="822.0"/>
      <point x="291.06040268456377" y="764.0"/>
    </contour>
  </outline>
</glyph>
<glyph name="two.oldtab" format="2">
  <advance width="664"/>
  <outline>
    <contour>
      <point x="320" y="498" type="curve" smooth="yes"/>
      <point x="238" y="498"/>
      <point x="171" y="465"/>
      <point x="132" y="424" type="curve"/>
      <point x="138" y="462"/>
      <point x="151" y="486"/>
      <point x="179" y="488" type="curve"/>
      <point x="179" y="371" type="line"/>
      <point x="83" y="371" type="line"/>
      <point x="83" y="478" type="line"/>
      <point x="123" y="518"/>
      <point x="211" y="558"/>
      <point x="320" y="558" type="curve" smooth="yes"/>
      <point x="474" y="558"/>
      <point x="566" y="499"/>
      <point x="566" y="392" type="curve" smooth="yes"/>
      <point x="566" y="248"/>
      <point x="329" y="140"/>
      <point x="107" y="50" type="curve"/>
      <point x="100" y="53"/>
      <point x="97" y="67"/>
      <point x="102" y="76" type="curve"/>
      <point x="388" y="76" type="line" smooth="yes"/>
      <point x="483" y="76"/>
      <point x="519" y="82"/>
      <point x="525" y="115" type="curve" smooth="yes"/>
      <point x="536" y="177" type="line"/>
      <point x="598" y="177" type="line"/>
      <point x="598" y="0" type="line"/>
      <point x="69" y="0" type="line"/>
      <point x="69" y="93" type="line"/>
      <point x="269" y="185"/>
      <point x="465" y="281"/>
      <point x="465" y="394" type="curve" smooth="yes"/>
      <point x="465" y="467"/>
      <point x="410" y="498"/>
    </contour>
  </outline>
</glyph>
<glyph name="whitecircle" format="2">
  <advance width="656"/>
  <outline>
    <contour>
      <point x="328.0" y="80.0" type="curve" smooth="yes"/>
      <point x="458" y="80.0"/>
      <point x="574.0" y="177.0"/>
      <point x="574" y="304" type="curve" smooth="yes"/>
      <point x="574.0" y="431.0"/>
      <point x="458" y="528.0"/>
      <point x="328.0" y="528.0" type="curve" smooth="yes"/>
      <point x="197" y="528.0"/>
      <point x="82.0" y="431.0"/>
      <point x="82" y="304" type="curve" smooth="yes"/>
      <point x="82.0" y="177.0"/>
      <point x="197" y="80.0"/>
    </contour>
    <contour>
      <point x="328.0" y="137.0" type="curve" smooth="yes"/>
      <point x="229" y="137.0"/>
      <point x="149.0" y="205.0"/>
      <point x="149" y="304" type="curve" smooth="yes"/>
      <point x="149.0" y="403.0"/>
      <point x="229" y="471.0"/>
      <point x="328.0" y="471.0" type="curve" smooth="yes"/>
      <point x="428" y="471.0"/>
      <point x="507.0" y="403.0"/>
      <point x="507" y="304" type="curve" smooth="yes"/>
      <point x="507.0" y="205.0"/>
      <point x="428" y="137.0"/>
    </contour>
  </outline>
</glyph>
